HIERARCHY
ROOT Hips
{
	OFFSET -3.958830 18.904000 13.208200
	CHANNELS 6 Xposition Yposition Zposition Zrotation Yrotation Xrotation 
	JOINT LHipJoint
	{
		OFFSET 0.000000 0.000000 0.000000
		CHANNELS 3 Zrotation Yrotation Xrotation
		JOINT LeftUpLeg
		{
			OFFSET 1.800000 -1.400000 0.085000
			CHANNELS 3 Zrotation Yrotation Xrotation
			JOINT LeftLeg
			{
				OFFSET 2.215000 -6.000000 0.000000
				CHANNELS 3 Zrotation Yrotation Xrotation
				JOINT LeftFoot
				{
					OFFSET 2.500000 -6.900000 0.000000
					CHANNELS 3 Zrotation Yrotation Xrotation
					JOINT LeftToeBase
					{
						OFFSET 0.200000 -0.500000 1.950000
						CHANNELS 3 Zrotation Yrotation Xrotation
						End Site
						{
							OFFSET 0.000000 0.000000 0.000000
						}
					}
				}
			}
		}
	}
	JOINT RHipJoint
	{
		OFFSET 0.000000 0.000000 0.000000
		CHANNELS 3 Zrotation Yrotation Xrotation
		JOINT RightUpLeg
		{
			OFFSET -1.800000 -1.400000 0.085000
			CHANNELS 3 Zrotation Yrotation Xrotation
			JOINT RightLeg
			{
				OFFSET -2.215000 -6.000000 0.000000
				CHANNELS 3 Zrotation Yrotation Xrotation
				JOINT RightFoot
				{
					OFFSET -2.500000 -6.900000 0.000000
					CHANNELS 3 Zrotation Yrotation Xrotation
					JOINT RightToeBase
					{
						OFFSET -0.200000 -0.500000 1.950000
						CHANNELS 3 Zrotation Yrotation Xrotation
						End Site
						{
							OFFSET 0.000000 0.000000 0.000000
						}
					}
				}
			}
		}
	}
	JOINT LowerBack
	{
		OFFSET 0.000000 0.000000 0.000000
		CHANNELS 3 Zrotation Yrotation Xrotation
		JOINT Spine
		{
			OFFSET -0.087000 1.940000 -0.288900
			CHANNELS 3 Zrotation Yrotation Xrotation
			JOINT Spine1
			{
				OFFSET 0.000000 1.950000 0.060000
				CHANNELS 3 Zrotation Yrotation Xrotation
				JOINT Neck
				{
					OFFSET 0.000000 0.000000 0.000000
					CHANNELS 3 Zrotation Yrotation Xrotation
					JOINT Neck1
					{
						OFFSET 0.000000 1.600000 0.340000
						CHANNELS 3 Zrotation Yrotation Xrotation
						JOINT Head
						{
							OFFSET 0.000000 1.667000 -0.240000
							CHANNELS 3 Zrotation Yrotation Xrotation
							End Site
							{
								OFFSET 0.000000 0.000000 0.000000
							}
						}
					}
				}
				JOINT LeftShoulder
				{
					OFFSET 0.000000 0.000000 0.000000
					CHANNELS 3 Zrotation Yrotation Xrotation
					JOINT LeftArm
					{
						OFFSET 2.700000 1.550000 -0.730000
						CHANNELS 3 Zrotation Yrotation Xrotation
						JOINT LeftForeArm
						{
							OFFSET 5.450000 0.000000 0.000000
							CHANNELS 3 Zrotation Yrotation Xrotation
							JOINT LeftHand
							{
								OFFSET 3.450000 0.000000 0.000000
								CHANNELS 3 Zrotation Yrotation Xrotation
								JOINT LeftHandIndex1
								{
									OFFSET 0.750000 0.000000 0.000000
									CHANNELS 3 Zrotation Yrotation Xrotation
									End Site
									{
										OFFSET 0.000000 0.000000 0.000000
									}
								}
							}
						}
					}
				}
				JOINT RightShoulder
				{
					OFFSET 0.000000 0.000000 0.000000
					CHANNELS 3 Zrotation Yrotation Xrotation
					JOINT RightArm
					{
						OFFSET -2.700000 1.550000 -0.730000
						CHANNELS 3 Zrotation Yrotation Xrotation
						JOINT RightForeArm
						{
							OFFSET -5.450000 0.000000 0.000000
							CHANNELS 3 Zrotation Yrotation Xrotation
							JOINT RightHand
							{
								OFFSET -3.450000 0.000000 0.000000
								CHANNELS 3 Zrotation Yrotation Xrotation
								JOINT RightHandIndex1
								{
									OFFSET -0.750000 0.000000 0.000000
									CHANNELS 3 Zrotation Yrotation Xrotation
									End Site
									{
										OFFSET 0.000000 0.000000 0.000000
									}
								}
							}
						}
					}
				}
			}
		}
	}
}
MOTION
Frames: 4
Frame Time: 0.016667
-4.040310 17.035690 -2.172270 -25.783399 -65.852816 7.751395 -15.011343 12.665073 4.233165 11.507146 -1.110023 -32.848216 -8.437703 14.720127 43.513278 0.894678 8.258963 1.419305 0.997380 0.944750 0.829470 18.207260 -11.822187 2.216464 -14.219604 3.865693 11.954568 3.194378 -10.604852 42.036218 -1.466381 -8.027714 1.753769 0.287120 -0.385690 0.238280 -4.835535 -0.321623 -7.630793 18.269267 4.142178 19.813784 -7.815118 7.837170 5.939636 3.662024 -7.402120 -9.136611 -19.391656 19.004918 50.422300 -2.167790 15.072210 -6.660040 -0.810127 17.562962 0.317406 -13.850071 26.472261 -5.259012 4.635996 -0.314780 -0.475219 -3.466379 3.093457 0.290310 -0.202440 0.477510 0.348450 -8.680814 -8.096673 6.470128 -7.468841 -28.189890 1.291475 -13.396307 26.676555 -1.007154 2.739747 -2.418007 0.370900 -0.215150 -0.700020 -0.038040 
-4.063730 17.024600 -2.188440 -24.276004 -66.478562 6.469571 -15.062498 12.673993 4.226638 10.957746 -1.263625 -32.883525 -8.297453 14.816911 43.932706 0.883253 8.347296 1.392396 0.992020 0.926760 0.842660 18.164947 -11.817467 2.160705 -14.717770 3.904448 12.024186 2.755574 -10.401019 41.853752 -1.437487 -8.009847 1.743181 0.295230 -0.376050 0.251100 -4.674488 -0.354472 -7.602762 16.318324 5.071035 18.730311 -6.259207 8.377840 7.478640 3.458369 -6.764204 -8.790925 -17.875323 18.027318 50.965644 -2.717950 14.991910 -6.557570 -1.832181 17.061472 0.319583 -14.314529 26.222385 -5.340329 4.576071 -1.136804 -0.515729 -3.491436 3.117756 0.283160 -0.177330 0.459450 0.331610 -7.167918 -8.333210 6.281428 -7.045026 -28.852452 1.369613 -16.298838 24.236937 -1.254475 2.781849 -2.333435 0.357820 -0.220320 -0.686240 -0.055990 
-4.104310 16.973010 -2.201630 -23.570937 -68.251451 6.330335 -15.135973 12.583116 4.294438 11.061326 -1.373066 -33.632777 -8.267699 15.307302 45.169513 0.836744 8.691155 1.272210 1.003990 0.904700 0.861780 18.124073 -11.807950 2.028909 -15.676811 4.015704 11.733197 2.006564 -10.082359 41.783203 -1.388674 -7.985835 1.717315 0.337760 -0.366120 0.245210 -4.646223 -0.325409 -7.538782 14.959089 5.921269 17.439528 -4.657052 8.794055 8.471192 2.610044 -6.575865 -8.071585 -17.426585 17.937866 50.458609 -2.276320 14.956860 -6.647910 -2.729805 17.386920 0.141848 -15.324383 26.482943 -5.823320 3.238632 -3.047456 -0.708700 -3.450894 3.179145 0.315290 -0.159900 0.417380 0.309060 -4.690646 -9.068522 6.031890 -4.447335 -29.214504 0.851744 -16.773689 20.987548 -1.187513 2.745632 -2.233671 0.299260 -0.218110 -0.666470 -0.105130 
-4.128740 16.934510 -2.231040 -24.231566 -70.191101 7.892323 -15.196048 12.407977 4.412237 12.060543 -1.307897 -34.306534 -9.699691 16.184017 45.031506 0.932480 8.869666 1.221050 1.067380 1.016030 0.876250 18.113842 -11.802474 1.876162 -15.833306 4.000330 10.152022 0.948994 -9.555910 42.766817 -1.364390 -7.934915 1.734983 0.405880 -0.381090 0.207080 -4.715417 -0.202307 -7.473384 14.138515 6.202670 15.619476 -3.899393 8.654884 8.769487 1.890348 -6.567197 -7.452654 -17.228658 17.615856 49.608369 -0.632140 14.319570 -6.087160 -2.264128 18.298428 0.076609 -18.833433 26.789325 -7.188058 3.850278 -4.726582 -0.625693 -3.384861 3.270133 0.262530 -0.176300 0.424670 0.361950 -3.741619 -9.834861 6.001392 -1.098797 -29.117232 -0.045523 -14.238619 20.114973 -1.111399 2.736217 -2.235453 0.317920 -0.220790 -0.751180 -0.064830 
